<svg xmlns="http://www.w3.org/2000/svg" viewBox="0 0 180 180">
  <rect width="180" height="180" rx="40" fill="#2563eb"/>
  <path d="M45 67.5c0-12.4 10.1-22.5 22.5-22.5h45c12.4 0 22.5 10.1 22.5 22.5v45c0 12.4-10.1 22.5-22.5 22.5h-45c-12.4 0-22.5-10.1-22.5-22.5v-45zm33.75 11.25h33.75c6.2 0 11.25 5.05 11.25 11.25v22.5c0 6.2-5.05 11.25-11.25 11.25h-33.75c-6.2 0-11.25-5.05-11.25-11.25v-22.5c0-6.2 5.05-11.25 11.25-11.25z" fill="white"/>
  <circle cx="56.25" cy="56.25" r="11.25" fill="#60a5fa"/>
</svg>
