<svg xmlns="http://www.w3.org/2000/svg" xmlns:xlink="http://www.w3.org/1999/xlink" width="2000" zoomAndPan="magnify" viewBox="0 0 1500 1499.999933" height="2000" preserveAspectRatio="xMidYMid meet" version="1.0"><defs><g/></defs><g fill="#111827" fill-opacity="1"><g transform="translate(138.38212, 839.699908)"><g><path d="M 22.46875 0 L 22.46875 -193.578125 L 89.90625 -193.578125 C 104.625 -193.578125 116.875 -191.039062 126.65625 -185.96875 C 136.445312 -180.90625 143.765625 -173.890625 148.609375 -164.921875 C 153.460938 -155.960938 155.890625 -145.679688 155.890625 -134.078125 C 155.890625 -122.378906 153.421875 -112.113281 148.484375 -103.28125 C 143.546875 -94.445312 136.179688 -87.582031 126.390625 -82.6875 C 116.609375 -77.789062 104.359375 -75.34375 89.640625 -75.34375 L 36.109375 -75.34375 L 36.109375 -97.046875 L 88.984375 -97.046875 C 98.953125 -97.046875 107.050781 -98.539062 113.28125 -101.53125 C 119.519531 -104.519531 124.132812 -108.785156 127.125 -114.328125 C 130.113281 -119.867188 131.609375 -126.453125 131.609375 -134.078125 C 131.609375 -141.785156 130.113281 -148.472656 127.125 -154.140625 C 124.132812 -159.816406 119.5 -164.234375 113.21875 -167.390625 C 106.9375 -170.554688 98.773438 -172.140625 88.734375 -172.140625 L 46.90625 -172.140625 L 46.90625 0 Z M 133.9375 0 L 87.171875 -87.171875 L 114.71875 -87.171875 L 162.265625 0 Z M 133.9375 0 "/></g></g></g><g fill="#111827" fill-opacity="1"><g transform="translate(298.852332, 839.699908)"><g><path d="M 79.640625 3.125 C 65.773438 3.125 53.816406 0.00390625 43.765625 -6.234375 C 33.722656 -12.472656 26.019531 -21.132812 20.65625 -32.21875 C 15.289062 -43.300781 12.609375 -56.160156 12.609375 -70.796875 C 12.609375 -85.441406 15.269531 -98.390625 20.59375 -109.640625 C 25.914062 -120.898438 33.445312 -129.691406 43.1875 -136.015625 C 52.9375 -142.335938 64.265625 -145.5 77.171875 -145.5 C 85.304688 -145.5 93.140625 -144.132812 100.671875 -141.40625 C 108.210938 -138.675781 114.96875 -134.390625 120.9375 -128.546875 C 126.914062 -122.703125 131.640625 -115.1875 135.109375 -106 C 138.578125 -96.820312 140.3125 -85.867188 140.3125 -73.140625 L 140.3125 -64.171875 L 27.546875 -64.171875 L 27.546875 -83.671875 L 127.703125 -83.671875 L 117.1875 -76.65625 C 117.1875 -86.09375 115.644531 -94.445312 112.5625 -101.71875 C 109.488281 -109 104.984375 -114.695312 99.046875 -118.8125 C 93.117188 -122.925781 85.828125 -124.984375 77.171875 -124.984375 C 68.597656 -124.984375 61.210938 -122.898438 55.015625 -118.734375 C 48.828125 -114.578125 44.085938 -109.054688 40.796875 -102.171875 C 37.503906 -95.285156 35.859375 -87.726562 35.859375 -79.5 L 35.859375 -67.296875 C 35.859375 -56.816406 37.65625 -47.851562 41.25 -40.40625 C 44.84375 -32.957031 49.953125 -27.28125 56.578125 -23.375 C 63.203125 -19.476562 70.929688 -17.53125 79.765625 -17.53125 C 85.648438 -17.53125 90.953125 -18.394531 95.671875 -20.125 C 100.398438 -21.863281 104.453125 -24.421875 107.828125 -27.796875 C 111.203125 -31.179688 113.757812 -35.335938 115.5 -40.265625 L 137.96875 -35.34375 C 135.800781 -27.800781 132.03125 -21.128906 126.65625 -15.328125 C 121.289062 -9.523438 114.601562 -5 106.59375 -1.75 C 98.582031 1.5 89.597656 3.125 79.640625 3.125 Z M 79.640625 3.125 "/></g></g></g><g fill="#111827" fill-opacity="1"><g transform="translate(441.134174, 839.699908)"><g><path d="M 19.609375 54.296875 L 19.609375 -143.421875 L 41.96875 -143.421875 L 41.96875 -120.8125 L 44.046875 -120.8125 C 45.953125 -124.019531 48.546875 -127.53125 51.828125 -131.34375 C 55.117188 -135.15625 59.535156 -138.46875 65.078125 -141.28125 C 70.628906 -144.09375 77.734375 -145.5 86.390625 -145.5 C 98.515625 -145.5 109.144531 -142.46875 118.28125 -136.40625 C 127.414062 -130.34375 134.582031 -121.769531 139.78125 -110.6875 C 144.976562 -99.601562 147.578125 -86.523438 147.578125 -71.453125 C 147.578125 -56.296875 145 -43.148438 139.84375 -32.015625 C 134.695312 -20.890625 127.550781 -12.273438 118.40625 -6.171875 C 109.269531 -0.0664062 98.640625 2.984375 86.515625 2.984375 C 78.117188 2.984375 71.125 1.578125 65.53125 -1.234375 C 59.945312 -4.046875 55.488281 -7.398438 52.15625 -11.296875 C 48.820312 -15.203125 46.160156 -18.796875 44.171875 -22.078125 L 42.734375 -22.078125 L 42.734375 54.296875 Z M 83.015625 -17.671875 C 91.847656 -17.671875 99.316406 -20.007812 105.421875 -24.6875 C 111.523438 -29.363281 116.15625 -35.769531 119.3125 -43.90625 C 122.476562 -52.050781 124.0625 -61.273438 124.0625 -71.578125 C 124.0625 -81.890625 122.503906 -91.050781 119.390625 -99.0625 C 116.273438 -107.070312 111.660156 -113.367188 105.546875 -117.953125 C 99.441406 -122.546875 91.929688 -124.84375 83.015625 -124.84375 C 74.179688 -124.84375 66.734375 -122.613281 60.671875 -118.15625 C 54.609375 -113.695312 49.992188 -107.484375 46.828125 -99.515625 C 43.671875 -91.546875 42.09375 -82.234375 42.09375 -71.578125 C 42.09375 -60.929688 43.671875 -51.554688 46.828125 -43.453125 C 49.992188 -35.359375 54.648438 -29.035156 60.796875 -24.484375 C 66.941406 -19.941406 74.347656 -17.671875 83.015625 -17.671875 Z M 83.015625 -17.671875 "/></g></g></g><g fill="#111827" fill-opacity="1"><g transform="translate(591.211021, 839.699908)"><g><path d="M 42.734375 -193.578125 L 42.734375 0 L 19.609375 0 L 19.609375 -193.578125 Z M 42.734375 -193.578125 "/></g></g></g><g fill="#111827" fill-opacity="1"><g transform="translate(643.460392, 839.699908)"><g><path d="M 18.0625 53 L 22.609375 32.875 L 27.546875 33.390625 C 31.867188 34.335938 35.804688 34.460938 39.359375 33.765625 C 42.910156 33.078125 46.09375 31.175781 48.90625 28.0625 C 51.726562 24.945312 54.21875 20.269531 56.375 14.03125 L 61.3125 0.390625 L 6.359375 -143.421875 L 31.5625 -143.421875 L 62.234375 -58.84375 C 65.347656 -50.445312 68.03125 -42.066406 70.28125 -33.703125 C 72.53125 -25.347656 74.867188 -17.234375 77.296875 -9.359375 L 69.375 -9.359375 C 71.800781 -17.234375 74.160156 -25.347656 76.453125 -33.703125 C 78.742188 -42.066406 81.40625 -50.445312 84.4375 -58.84375 L 115.234375 -143.421875 L 140.171875 -143.421875 L 76.515625 22.46875 C 73.742188 29.832031 70.34375 35.9375 66.3125 40.78125 C 62.289062 45.632812 57.613281 49.226562 52.28125 51.5625 C 46.957031 53.90625 40.960938 55.078125 34.296875 55.078125 C 30.566406 55.078125 27.273438 54.835938 24.421875 54.359375 C 21.566406 53.890625 19.445312 53.4375 18.0625 53 Z M 18.0625 53 "/></g></g></g><g fill="#1f48ff" fill-opacity="1"><g transform="translate(779.9016, 839.699908)"><g><path d="M 16.765625 0 L 16.765625 -193.578125 L 145.765625 -193.578125 L 145.765625 -160.3125 L 56.515625 -160.3125 L 56.515625 -107.703125 L 137.703125 -107.703125 L 137.703125 -75.21875 L 56.515625 -75.21875 L 56.515625 0 Z M 16.765625 0 "/></g></g></g><g fill="#1f48ff" fill-opacity="1"><g transform="translate(925.691178, 839.699908)"><g><path d="M 54.6875 -193.578125 L 54.6875 0 L 15.984375 0 L 15.984375 -193.578125 Z M 54.6875 -193.578125 "/></g></g></g><g fill="#1f48ff" fill-opacity="1"><g transform="translate(986.255217, 839.699908)"><g><path d="M 80.671875 2.859375 C 66.210938 2.859375 53.675781 -0.234375 43.0625 -6.421875 C 32.457031 -12.617188 24.273438 -21.28125 18.515625 -32.40625 C 12.753906 -43.539062 9.875 -56.46875 9.875 -71.1875 C 9.875 -86.082031 12.753906 -99.09375 18.515625 -110.21875 C 24.273438 -121.351562 32.457031 -130.015625 43.0625 -136.203125 C 53.675781 -142.398438 66.210938 -145.5 80.671875 -145.5 C 95.046875 -145.5 107.539062 -142.398438 118.15625 -136.203125 C 128.769531 -130.015625 136.953125 -121.351562 142.703125 -110.21875 C 148.460938 -99.09375 151.34375 -86.082031 151.34375 -71.1875 C 151.34375 -56.46875 148.460938 -43.539062 142.703125 -32.40625 C 136.953125 -21.28125 128.769531 -12.617188 118.15625 -6.421875 C 107.539062 -0.234375 95.046875 2.859375 80.671875 2.859375 Z M 80.671875 -27.796875 C 87.429688 -27.796875 93.125 -29.65625 97.75 -33.375 C 102.382812 -37.101562 105.914062 -42.238281 108.34375 -48.78125 C 110.769531 -55.320312 111.984375 -62.835938 111.984375 -71.328125 C 111.984375 -79.898438 110.769531 -87.429688 108.34375 -93.921875 C 105.914062 -100.421875 102.382812 -105.53125 97.75 -109.25 C 93.125 -112.976562 87.429688 -114.84375 80.671875 -114.84375 C 73.921875 -114.84375 68.207031 -112.976562 63.53125 -109.25 C 58.851562 -105.53125 55.320312 -100.421875 52.9375 -93.921875 C 50.550781 -87.429688 49.359375 -79.898438 49.359375 -71.328125 C 49.359375 -62.835938 50.550781 -55.320312 52.9375 -48.78125 C 55.320312 -42.238281 58.828125 -37.101562 63.453125 -33.375 C 68.085938 -29.65625 73.828125 -27.796875 80.671875 -27.796875 Z M 80.671875 -27.796875 "/></g></g></g><g fill="#1f48ff" fill-opacity="1"><g transform="translate(1137.371414, 839.699908)"><g><path d="M 46.25 0 L 3.5 -143.421875 L 44.171875 -143.421875 L 56.765625 -91.0625 C 59.023438 -81.363281 61.390625 -70.945312 63.859375 -59.8125 C 66.328125 -48.6875 68.640625 -36.675781 70.796875 -23.78125 L 66.125 -23.78125 C 68.46875 -36.507812 70.957031 -48.457031 73.59375 -59.625 C 76.238281 -70.800781 78.773438 -81.28125 81.203125 -91.0625 L 94.453125 -143.421875 L 130.046875 -143.421875 L 142.90625 -91.0625 C 145.238281 -81.28125 147.726562 -70.820312 150.375 -59.6875 C 153.019531 -48.5625 155.507812 -36.59375 157.84375 -23.78125 L 153.296875 -23.78125 C 155.460938 -36.507812 157.710938 -48.4375 160.046875 -59.5625 C 162.390625 -70.695312 164.6875 -81.195312 166.9375 -91.0625 L 179.546875 -143.421875 L 220.859375 -143.421875 L 177.84375 0 L 138.234375 0 L 122.25 -55.734375 C 120.6875 -61.191406 119.125 -67.1875 117.5625 -73.71875 C 116.007812 -80.257812 114.492188 -86.90625 113.015625 -93.65625 C 111.546875 -100.414062 110.078125 -106.785156 108.609375 -112.765625 L 115.5 -112.765625 C 114.019531 -106.785156 112.546875 -100.414062 111.078125 -93.65625 C 109.609375 -86.90625 108.113281 -80.257812 106.59375 -73.71875 C 105.082031 -67.1875 103.503906 -61.191406 101.859375 -55.734375 L 85.75 0 Z M 46.25 0 "/></g></g></g></svg>